<?xml version="1.0" encoding="utf-8"?>
<!-- Svg Vector Icons : http://www.onlinewebfonts.com/icon -->
<!DOCTYPE svg PUBLIC "-//W3C//DTD SVG 1.1//EN" "http://www.w3.org/Graphics/SVG/1.1/DTD/svg11.dtd">
<svg version="1.1" xmlns="http://www.w3.org/2000/svg" xmlns:xlink="http://www.w3.org/1999/xlink" x="0px" y="0px" viewBox="0 0 256 256" enable-background="new 0 0 256 256" xml:space="preserve">
<metadata> Svg Vector Icons : http://www.onlinewebfonts.com/icon </metadata>
<g><g><path fill="#000000" d="M241.8,36.3c-2.3-2.3-5.4-3.8-8.7-4.1c-6.1-0.6-22.8,9.2-32.2,15c-13.5,8.4-33.7,22.7-53.9,42.8L103,134c-5.6,5.6-5.6,14.7,0,20.3l0.2,0.2L42.7,215c-5.6,5.6-5.6,14.7,0,20.3c5.6,5.6,14.7,5.6,20.3,0L241.8,56.6c3.9-3.9,5.2-9.8,3.4-15C244.5,39.6,243.3,37.8,241.8,36.3L241.8,36.3L241.8,36.3L241.8,36.3z"/><path fill="#000000" d="M162.8,150.3l-20.3,20.3l63.2,63.2c5.6,5.6,14.7,5.6,20.3,0c5.6-5.6,5.6-14.7,0-20.3L162.8,150.3L162.8,150.3z"/><path fill="#000000" d="M81.2,109L97,124.8l20.1-20.1l-15-15c2.8-9.4,0.5-20-7-27.5c-0.1-0.1-0.2-0.1-0.2-0.2s-0.1-0.2-0.2-0.2l-44-44c-1.9-1.9-4.8-1.9-6.7,0c-1.9,1.9-1.9,4.8,0,6.7l40.9,40.8c0,0,0,0,0,0c1.2,1.2,1.2,3,0,4.2c-1.2,1.2-3,1.2-4.2,0l0,0l0,0L39.8,28.7c-1.9-1.9-4.8-1.9-6.7,0s-1.9,4.8,0,6.7L74,76.3c0,0,0,0,0,0c1.2,1.2,1.2,3,0,4.2c-1.2,1.2-3,1.2-4.2,0c0,0,0,0,0,0l0,0L28.9,39.5c-1.9-1.9-4.8-1.9-6.7,0s-1.9,4.8,0,6.7l40.9,40.9l0,0c1.2,1.2,1.2,3,0,4.2c-1.2,1.2-3,1.2-4.2,0c0,0,0,0,0,0v0L18.1,50.4c-1.8-1.9-4.8-1.9-6.7,0c-1.9,1.9-1.9,4.8,0,6.7l44,44c0.1,0.1,0.2,0.1,0.2,0.2c0.1,0.1,0.1,0.2,0.2,0.2C62.7,108.4,72.4,110.9,81.2,109L81.2,109L81.2,109z"/><path fill="#000000" d="M223.3,211l-57.7-57.8l-20.1,20l57.8,57.8c5.5,5.5,14.5,5.5,20.1,0C228.8,225.5,228.8,216.5,223.3,211L223.3,211L223.3,211z"/></g></g>
</svg>