<svg width="102" height="18" viewBox="0 0 102 18" fill="none" xmlns="http://www.w3.org/2000/svg">
<path d="M7.80615 5V7.5H0.57959V5H7.80615ZM2.22021 2.125H5.54834V13.3125C5.54834 13.6198 5.59522 13.8594 5.68897 14.0312C5.78271 14.1979 5.91292 14.3151 6.07959 14.3828C6.25147 14.4505 6.44938 14.4844 6.67334 14.4844C6.82959 14.4844 6.98584 14.4714 7.14209 14.4453C7.29834 14.4141 7.41813 14.3906 7.50147 14.375L8.0249 16.8516C7.85824 16.9036 7.62386 16.9635 7.32178 17.0313C7.01969 17.1042 6.65251 17.1484 6.22021 17.1641C5.41813 17.1953 4.71501 17.0885 4.11084 16.8437C3.51188 16.599 3.04574 16.2187 2.7124 15.7031C2.37907 15.1875 2.21501 14.5365 2.22021 13.75V2.125ZM9.97412 17V5H13.2007V7.09375H13.3257C13.5444 6.34896 13.9116 5.78646 14.4272 5.40625C14.9429 5.02083 15.5366 4.82812 16.2085 4.82812C16.3752 4.82812 16.5549 4.83854 16.7476 4.85937C16.9403 4.88021 17.1095 4.90885 17.2554 4.94531V7.89844C17.0991 7.85156 16.883 7.8099 16.6069 7.77344C16.3309 7.73698 16.0783 7.71875 15.8491 7.71875C15.3595 7.71875 14.922 7.82552 14.5366 8.03906C14.1564 8.2474 13.8543 8.53906 13.6304 8.91406C13.4116 9.28906 13.3022 9.72135 13.3022 10.2109V17H9.97412ZM23.8862 17.2344C22.6519 17.2344 21.5894 16.9844 20.6987 16.4844C19.8133 15.9792 19.131 15.2656 18.6519 14.3437C18.1727 13.4167 17.9331 12.3203 17.9331 11.0547C17.9331 9.82031 18.1727 8.73698 18.6519 7.80469C19.131 6.8724 19.8055 6.14583 20.6753 5.625C21.5503 5.10417 22.5763 4.84375 23.7534 4.84375C24.5451 4.84375 25.2821 4.97135 25.9644 5.22656C26.6519 5.47656 27.2508 5.85417 27.7612 6.35937C28.2769 6.86458 28.6779 7.5 28.9644 8.26562C29.2508 9.02604 29.394 9.91667 29.394 10.9375V11.8516H19.2612V9.78906H26.2612C26.2612 9.3099 26.1571 8.88542 25.9487 8.51563C25.7404 8.14583 25.4513 7.85677 25.0815 7.64844C24.717 7.4349 24.2925 7.32812 23.8081 7.32812C23.3029 7.32812 22.855 7.44531 22.4644 7.67969C22.0789 7.90885 21.7769 8.21875 21.5581 8.60937C21.3394 8.99479 21.2274 9.42448 21.2222 9.89844V11.8594C21.2222 12.4531 21.3315 12.9661 21.5503 13.3984C21.7743 13.8307 22.0894 14.1641 22.4956 14.3984C22.9019 14.6328 23.3836 14.75 23.9409 14.75C24.3107 14.75 24.6493 14.6979 24.9565 14.5938C25.2638 14.4896 25.5269 14.3333 25.7456 14.125C25.9644 13.9167 26.131 13.6615 26.2456 13.3594L29.3237 13.5625C29.1675 14.3021 28.8472 14.9479 28.3628 15.5C27.8836 16.0469 27.2638 16.474 26.5034 16.7813C25.7482 17.0833 24.8758 17.2344 23.8862 17.2344ZM31.5659 17V5H34.894V17H31.5659ZM33.2378 3.45312C32.743 3.45312 32.3185 3.28906 31.9644 2.96094C31.6154 2.6276 31.4409 2.22917 31.4409 1.76562C31.4409 1.30729 31.6154 0.914062 31.9644 0.585938C32.3185 0.252604 32.743 0.0859367 33.2378 0.0859367C33.7326 0.0859367 34.1545 0.252604 34.5034 0.585938C34.8576 0.914062 35.0347 1.30729 35.0347 1.76562C35.0347 2.22917 34.8576 2.6276 34.5034 2.96094C34.1545 3.28906 33.7326 3.45312 33.2378 3.45312ZM40.8882 10.0625V17H37.5601V5H40.7319V7.11719H40.8726C41.1382 6.41927 41.5835 5.86719 42.2085 5.46094C42.8335 5.04948 43.5913 4.84375 44.4819 4.84375C45.3153 4.84375 46.0418 5.02604 46.6616 5.39062C47.2814 5.75521 47.7632 6.27604 48.1069 6.95312C48.4507 7.625 48.6226 8.42708 48.6226 9.35937V17H45.2944V9.95312C45.2996 9.21875 45.1121 8.64583 44.7319 8.23438C44.3517 7.81771 43.8283 7.60937 43.1616 7.60937C42.7137 7.60937 42.3179 7.70573 41.9741 7.89844C41.6356 8.09115 41.37 8.3724 41.1772 8.74219C40.9897 9.10677 40.8934 9.54688 40.8882 10.0625ZM56.7144 17.2344C55.48 17.2344 54.4175 16.9844 53.5269 16.4844C52.6414 15.9792 51.9591 15.2656 51.48 14.3437C51.0008 13.4167 50.7612 12.3203 50.7612 11.0547C50.7612 9.82031 51.0008 8.73698 51.48 7.80469C51.9591 6.8724 52.6336 6.14583 53.5034 5.625C54.3784 5.10417 55.4045 4.84375 56.5815 4.84375C57.3732 4.84375 58.1102 4.97135 58.7925 5.22656C59.48 5.47656 60.0789 5.85417 60.5894 6.35937C61.105 6.86458 61.506 7.5 61.7925 8.26562C62.0789 9.02604 62.2222 9.91667 62.2222 10.9375V11.8516H52.0894V9.78906H59.0894C59.0894 9.3099 58.9852 8.88542 58.7769 8.51563C58.5685 8.14583 58.2795 7.85677 57.9097 7.64844C57.5451 7.4349 57.1206 7.32812 56.6362 7.32812C56.131 7.32812 55.6831 7.44531 55.2925 7.67969C54.9071 7.90885 54.605 8.21875 54.3862 8.60937C54.1675 8.99479 54.0555 9.42448 54.0503 9.89844V11.8594C54.0503 12.4531 54.1597 12.9661 54.3784 13.3984C54.6024 13.8307 54.9175 14.1641 55.3237 14.3984C55.73 14.6328 56.2118 14.75 56.769 14.75C57.1388 14.75 57.4774 14.6979 57.7847 14.5938C58.092 14.4896 58.355 14.3333 58.5737 14.125C58.7925 13.9167 58.9591 13.6615 59.0737 13.3594L62.1519 13.5625C61.9956 14.3021 61.6753 14.9479 61.1909 15.5C60.7118 16.0469 60.092 16.474 59.3315 16.7813C58.5763 17.0833 57.7039 17.2344 56.7144 17.2344ZM66.3394 17.2031C65.8237 17.2031 65.381 17.0208 65.0112 16.6562C64.6466 16.2865 64.4644 15.8437 64.4644 15.3281C64.4644 14.8177 64.6466 14.3802 65.0112 14.0156C65.381 13.651 65.8237 13.4687 66.3394 13.4687C66.8394 13.4687 67.2769 13.651 67.6519 14.0156C68.0269 14.3802 68.2144 14.8177 68.2144 15.3281C68.2144 15.6719 68.1258 15.987 67.9487 16.2734C67.7769 16.5547 67.5503 16.7812 67.269 16.9531C66.9878 17.1198 66.6779 17.2031 66.3394 17.2031ZM70.9468 17V5H74.1187V7.11719H74.2593C74.5093 6.41406 74.9259 5.85937 75.5093 5.45312C76.0926 5.04687 76.7905 4.84375 77.603 4.84375C78.4259 4.84375 79.1265 5.04948 79.7046 5.46094C80.2827 5.86719 80.6681 6.41927 80.8608 7.11719H80.9858C81.2306 6.42969 81.6733 5.88021 82.314 5.46875C82.9598 5.05208 83.7228 4.84375 84.603 4.84375C85.7228 4.84375 86.6317 5.20052 87.3296 5.91406C88.0327 6.6224 88.3843 7.6276 88.3843 8.92969V17H85.064V9.58594C85.064 8.91927 84.8869 8.41927 84.5327 8.08594C84.1785 7.7526 83.7358 7.58594 83.2046 7.58594C82.6004 7.58594 82.1291 7.77865 81.7905 8.16406C81.452 8.54427 81.2827 9.04687 81.2827 9.67187V17H78.0562V9.51562C78.0562 8.92708 77.8869 8.45833 77.5483 8.10937C77.215 7.76042 76.7749 7.58594 76.228 7.58594C75.8582 7.58594 75.5249 7.67969 75.228 7.86719C74.9364 8.04948 74.7046 8.30729 74.5327 8.64062C74.3608 8.96875 74.2749 9.35417 74.2749 9.79687V17H70.9468ZM96.4819 17.2344C95.2476 17.2344 94.1851 16.9844 93.2944 16.4844C92.409 15.9792 91.7267 15.2656 91.2476 14.3437C90.7684 13.4167 90.5288 12.3203 90.5288 11.0547C90.5288 9.82031 90.7684 8.73698 91.2476 7.80469C91.7267 6.8724 92.4012 6.14583 93.271 5.625C94.146 5.10417 95.172 4.84375 96.3491 4.84375C97.1408 4.84375 97.8778 4.97135 98.5601 5.22656C99.2476 5.47656 99.8465 5.85417 100.357 6.35937C100.873 6.86458 101.274 7.5 101.56 8.26562C101.847 9.02604 101.99 9.91667 101.99 10.9375V11.8516H91.8569V9.78906H98.8569C98.8569 9.3099 98.7528 8.88542 98.5444 8.51563C98.3361 8.14583 98.047 7.85677 97.6772 7.64844C97.3127 7.4349 96.8882 7.32812 96.4038 7.32812C95.8986 7.32812 95.4507 7.44531 95.0601 7.67969C94.6746 7.90885 94.3726 8.21875 94.1538 8.60937C93.9351 8.99479 93.8231 9.42448 93.8179 9.89844V11.8594C93.8179 12.4531 93.9272 12.9661 94.146 13.3984C94.37 13.8307 94.6851 14.1641 95.0913 14.3984C95.4976 14.6328 95.9793 14.75 96.5366 14.75C96.9064 14.75 97.245 14.6979 97.5522 14.5938C97.8595 14.4896 98.1226 14.3333 98.3413 14.125C98.5601 13.9167 98.7267 13.6615 98.8413 13.3594L101.919 13.5625C101.763 14.3021 101.443 14.9479 100.958 15.5C100.479 16.0469 99.8595 16.474 99.0991 16.7813C98.3439 17.0833 97.4715 17.2344 96.4819 17.2344Z" fill="#89C5CC"/>
</svg>
