<svg width="36" height="28" viewBox="0 0 36 28" fill="none" xmlns="http://www.w3.org/2000/svg">
<path d="M18 20.25C20.7614 20.25 23 18.0114 23 15.25C23 12.4886 20.7614 10.25 18 10.25C15.2386 10.25 13 12.4886 13 15.25C13 18.0114 15.2386 20.25 18 20.25Z" fill="#323238"/>
<path d="M31.75 5.25H27.1406C26.9062 5.25 26.6156 5.09844 26.3891 4.85938L24.3625 1.66094C24.3304 1.61018 24.2947 1.56187 24.2555 1.51641C23.5555 0.7 22.6094 0.25 21.5938 0.25H14.4062C13.3906 0.25 12.4445 0.7 11.7445 1.51641C11.7053 1.56187 11.6695 1.61018 11.6375 1.66094L9.61094 4.86406C9.4375 5.05312 9.19375 5.25469 8.9375 5.25469V4.62969C8.9375 4.29817 8.8058 3.98022 8.57138 3.7458C8.33696 3.51138 8.01902 3.37969 7.6875 3.37969H5.8125C5.48098 3.37969 5.16304 3.51138 4.92862 3.7458C4.6942 3.98022 4.5625 4.29817 4.5625 4.62969V5.25469H4.25C3.25576 5.25572 2.30253 5.65114 1.59949 6.35418C0.896454 7.05722 0.501034 8.01044 0.5 9.00469V24C0.501034 24.9942 0.896454 25.9475 1.59949 26.6505C2.30253 27.3535 3.25576 27.749 4.25 27.75H31.75C32.7442 27.749 33.6975 27.3535 34.4005 26.6505C35.1035 25.9475 35.499 24.9942 35.5 24V9C35.499 8.00576 35.1035 7.05253 34.4005 6.34949C33.6975 5.64645 32.7442 5.25103 31.75 5.25ZM18 22.75C16.5166 22.75 15.0666 22.3101 13.8332 21.486C12.5999 20.6619 11.6386 19.4906 11.0709 18.1201C10.5032 16.7497 10.3547 15.2417 10.6441 13.7868C10.9335 12.332 11.6478 10.9956 12.6967 9.9467C13.7456 8.89781 15.082 8.1835 16.5368 7.89411C17.9917 7.60472 19.4997 7.75325 20.8701 8.3209C22.2406 8.88856 23.4119 9.84985 24.236 11.0832C25.0601 12.3166 25.5 13.7666 25.5 15.25C25.4977 17.2384 24.7068 19.1448 23.3008 20.5508C21.8948 21.9568 19.9884 22.7477 18 22.75Z" fill="#323238"/>
</svg>
